<?xml version="1.0" encoding="utf-8"?>
<!-- Generator: Adobe Illustrator 17.0.2, SVG Export Plug-In . SVG Version: 6.00 Build 0)  -->
<!DOCTYPE svg PUBLIC "-//W3C//DTD SVG 1.1//EN" "http://www.w3.org/Graphics/SVG/1.1/DTD/svg11.dtd">
<svg version="1.1" id="Layer_1" xmlns="http://www.w3.org/2000/svg" xmlns:xlink="http://www.w3.org/1999/xlink" x="0px" y="0px"
	 width="292.93px" height="356.178px" viewBox="0 0 292.93 356.178" enable-background="new 0 0 292.93 356.178"
	 xml:space="preserve">
<path fill="none" stroke="#000000" stroke-miterlimit="10" d="M263.366,385.473"/>
<path fill="none" stroke="#000000" stroke-miterlimit="10" d="M484.58,354.176"/>
<path fill="none" stroke="#000000" stroke-miterlimit="10" d="M381.527,385.473"/>
<g>
	<g>
		<path fill="none" d="M146.538,155.538L146.465,0l-0.073,155.577C146.44,155.561,146.489,155.55,146.538,155.538z"/>
		<g>
			<path fill="none" d="M146.538,155.538L146.465,0l-0.073,155.577C146.44,155.561,146.489,155.55,146.538,155.538z"/>
			<path fill="#A3CCFF" d="M146.465,0C61.321,0-19.785,89.534,24.725,187.397c48.116,105.792,121.74,171.694,121.74,168.682
				c0,3.012,73.624-62.89,121.74-168.682C312.715,89.533,231.609,0,146.465,0"/>
		</g>
	</g>
	<path fill="#FFF2E7" stroke="#991D29" stroke-width="8" stroke-miterlimit="10" d="M147.468,91.497
		C51.56,46.41,57.609,163.148,68.916,182.905c40.632,70.992,47.279,71.872,78.552,56.818c27.061,12.403,34.716,19.659,75.183-55.178
		C235.041,161.633,243.376,46.41,147.468,91.497z"/>
	<g>
		<path fill="#42210B" d="M181.159,163.619c-0.066-3.002-5.265-7.009-10.991-5.199c-6.245,1.975-10.754,5.674-10.754,5.674
			s6.12,4.196,10.991,5.199C176.289,170.503,181.225,166.621,181.159,163.619z"/>
		<path fill="#42210B" d="M111.917,163.518c-0.031,3.003,5.036,7.175,10.818,5.55c6.305-1.772,10.931-5.324,10.931-5.324
			s-5.982-4.391-10.818-5.55C117.007,156.794,111.948,160.515,111.917,163.518z"/>
		<path fill="#42210B" d="M166.837,140.039c-2.105-2.142-8.637-1.499-11.568,3.743c-3.196,5.717-3.946,11.5-3.946,11.5
			s7.333-1.137,11.568-3.743C168.006,148.391,168.942,142.181,166.837,140.039z"/>
		<path fill="#42210B" d="M163.968,189.189c2.453-1.733,2.87-8.283-1.833-12.02c-5.128-4.074-10.715-5.745-10.715-5.745
			s-0.058,7.421,1.833,12.02C155.537,188.998,161.515,190.922,163.968,189.189z"/>
		<path fill="#42210B" d="M126.372,140.039c2.105-2.142,8.637-1.499,11.568,3.743c3.196,5.717,3.946,11.5,3.946,11.5
			s-7.333-1.137-11.568-3.743C125.204,148.391,124.268,142.181,126.372,140.039z"/>
		<path fill="#42210B" d="M129.213,189.189c-2.453-1.733-2.87-8.283,1.833-12.02c5.128-4.074,10.715-5.745,10.715-5.745
			s0.058,7.421-1.833,12.02C137.644,188.998,131.666,190.922,129.213,189.189z"/>
	</g>
</g>
</svg>
