<?xml version="1.0" encoding="utf-8"?>
<!-- Generator: Adobe Illustrator 17.0.2, SVG Export Plug-In . SVG Version: 6.00 Build 0)  -->
<!DOCTYPE svg PUBLIC "-//W3C//DTD SVG 1.1//EN" "http://www.w3.org/Graphics/SVG/1.1/DTD/svg11.dtd">
<svg version="1.1" id="Layer_1" xmlns="http://www.w3.org/2000/svg" xmlns:xlink="http://www.w3.org/1999/xlink" x="0px" y="0px"
	 width="143.407px" height="55.28px" viewBox="158.152 22.49 143.407 55.28" enable-background="new 158.152 22.49 143.407 55.28"
	 xml:space="preserve">
<g>
	<g>
		<path fill="none" stroke="#000000" stroke-miterlimit="10" d="M163.815,50.119"/>
		<path fill="none" stroke="#000000" stroke-miterlimit="10" d="M181.513,47.307"/>
		<path fill="none" stroke="#000000" stroke-miterlimit="10" d="M173.268,50.119"/>
		<g>
			<path fill="none" d="M154.47,29.123l-0.008-16.284l-0.008,16.289C154.46,29.125,154.465,29.124,154.47,29.123z"/>
			<g>
				<g>
					<path fill="none" d="M176.158,47.112l-0.008-16.284l-0.008,16.289C176.148,47.115,176.153,47.114,176.158,47.112z"/>
					<path fill="#A3CCFF" d="M176.15,30.828c-9.149,0-17.864,9.374-13.081,19.62c5.17,11.076,13.081,17.976,13.081,17.661
						c0,0.315,7.911-6.584,13.081-17.661C194.014,40.202,185.299,30.828,176.15,30.828"/>
				</g>
				<path fill="#FFF2E7" stroke="#991D29" stroke-miterlimit="10" d="M176.247,41.494c-9.127-4.174-8.552,6.634-7.476,8.463
					c3.867,6.573,4.499,6.654,7.476,5.26c2.575,1.148,3.304,1.82,7.155-5.109C184.581,47.987,185.374,37.32,176.247,41.494z"/>
				<g>
					<path fill="#42210B" d="M178.926,48.173c-0.005-0.27-0.421-0.63-0.879-0.467c-0.5,0.177-0.86,0.51-0.86,0.51
						s0.49,0.377,0.879,0.467C178.536,48.792,178.931,48.443,178.926,48.173z"/>
					<path fill="#42210B" d="M173.386,48.164c-0.002,0.27,0.403,0.645,0.865,0.499c0.504-0.159,0.875-0.478,0.875-0.478
						s-0.479-0.395-0.865-0.499C173.794,47.56,173.389,47.894,173.386,48.164z"/>
					<path fill="#42210B" d="M177.78,46.054c-0.168-0.192-0.691-0.135-0.925,0.336c-0.256,0.514-0.316,1.033-0.316,1.033
						s0.587-0.102,0.925-0.336C177.874,46.805,177.949,46.247,177.78,46.054z"/>
					<path fill="#42210B" d="M177.551,50.471c0.196-0.156,0.23-0.744-0.147-1.08c-0.41-0.366-0.857-0.516-0.857-0.516
						s-0.005,0.667,0.147,1.08C176.876,50.454,177.354,50.627,177.551,50.471z"/>
					<path fill="#42210B" d="M174.543,46.054c0.168-0.192,0.691-0.135,0.925,0.336c0.256,0.514,0.316,1.033,0.316,1.033
						s-0.587-0.102-0.925-0.336C174.449,46.805,174.375,46.247,174.543,46.054z"/>
					<path fill="#42210B" d="M174.77,50.471c-0.196-0.156-0.23-0.744,0.147-1.08c0.41-0.366,0.857-0.516,0.857-0.516
						s0.005,0.667-0.147,1.08C175.445,50.454,174.966,50.627,174.77,50.471z"/>
				</g>
			</g>
		</g>
	</g>
	<text transform="matrix(1 0 0 1 197.7142 59.1188)" fill="#A3CCFF" font-family="'MyriadPro-Regular'" font-size="21">TripPlanner</text>
</g>
</svg>
